<svg xmlns="http://www.w3.org/2000/svg" aria-hidden="true" style="position:absolute;width:0;height:0;overflow:hidden">
  <defs>
    <symbol id="icon-arrow-back" viewBox="0 0 32 32">
      <path stroke-linecap="round" stroke-linejoin="round" stroke-width="1.333" d="M21.333 26 10.666 16 21.333 6"/>
    </symbol>
    <symbol id="icon-arrow-down" viewBox="0 0 32 32">
      <path stroke-linecap="round" stroke-linejoin="round" stroke-width="1.333" d="M9.333 13.333 16 20l6.667-6.667"/>
    </symbol>
    <symbol id="icon-close" viewBox="0 0 32 32">
      <path fill="none" stroke="#760304" stroke-width="1.333" d="M5.333.667h21.333a4.667 4.667 0 0 1 4.667 4.667v21.333a4.667 4.667 0 0 1-4.667 4.667H5.333a4.667 4.667 0 0 1-4.667-4.667V5.334A4.667 4.667 0 0 1 5.333.667z" style="stroke:var(--color1, #760304)"/>
      <path fill="none" stroke="#efefef" stroke-linecap="round" stroke-linejoin="round" stroke-width="1.333" d="m7 7 9 9m0 0-9 9m9-9 9 9m-9-9 9-9" style="stroke:var(--color2, #efefef)"/>
    </symbol>
    <symbol id="icon-diamond" viewBox="0 0 32 32">
      <path fill="#efefef" d="m16 1.778 7.04 7.183 7.183 7.04-7.183 7.04L16 30.224l-7.04-7.183-7.183-7.04 7.183-7.04L16 1.778z" style="fill:var(--color2, #efefef)"/>
    </symbol>
    <symbol id="icon-menu" viewBox="0 0 32 32">
      <path fill="none" stroke="#760304" stroke-width="1.333" d="M5.333.667h21.333a4.667 4.667 0 0 1 4.667 4.667v21.333a4.667 4.667 0 0 1-4.667 4.667H5.333a4.667 4.667 0 0 1-4.667-4.667V5.334A4.667 4.667 0 0 1 5.333.667z" style="stroke:var(--color1, #760304)"/>
      <path fill="none" stroke="#efefef" stroke-linecap="round" stroke-width="1.333" d="M7.5 9.5h17m-17 12h17m-17-6h17" style="stroke:var(--color2, #efefef)"/>
    </symbol>
  </defs>
</svg>
